<?xml version="1.0" encoding="UTF-8"?>
<svg xmlns="http://www.w3.org/2000/svg" xmlns:xlink="http://www.w3.org/1999/xlink" width="120pt" height="142pt" viewBox="0 0 120 142" version="1.1">
<g id="surface1">
<path style=" stroke:none;fill-rule:nonzero;fill:rgb(75.294118%,73.72549%,74.117647%);fill-opacity:1;" d="M 18.757812 43.445312 L 18.757812 44.457031 L 17.285156 44.457031 L 17.285156 43.445312 L 17.125 43.445312 L 17.125 45.640625 L 17.285156 45.640625 L 17.285156 44.597656 L 18.757812 44.597656 L 18.757812 45.640625 L 18.917969 45.640625 L 18.917969 43.445312 Z M 23.914062 45.640625 L 24.089844 45.640625 L 23.078125 43.445312 L 22.917969 43.445312 L 21.902344 45.640625 L 22.074219 45.640625 L 22.355469 45.023438 L 23.632812 45.023438 Z M 22.417969 44.890625 L 22.996094 43.621094 L 23.570312 44.890625 Z M 27.074219 45.640625 L 27.234375 45.640625 L 27.234375 43.445312 L 27.074219 43.445312 Z M 32.300781 45.640625 L 31.75 44.875 C 32.066406 44.796875 32.28125 44.507812 32.265625 44.1875 C 32.265625 43.722656 31.933594 43.445312 31.378906 43.445312 L 30.589844 43.445312 L 30.589844 45.640625 L 30.75 45.640625 L 30.75 44.925781 L 31.378906 44.925781 C 31.449219 44.925781 31.523438 44.917969 31.59375 44.910156 L 32.117188 45.640625 Z M 30.75 44.78125 L 30.75 43.589844 L 31.378906 43.589844 C 31.851562 43.589844 32.101562 43.808594 32.101562 44.1875 C 32.101562 44.566406 31.851562 44.78125 31.378906 44.78125 Z M 36.371094 45.65625 C 36.664062 45.667969 36.949219 45.554688 37.15625 45.351562 L 37.054688 45.246094 C 36.875 45.421875 36.628906 45.519531 36.378906 45.511719 C 36.117188 45.519531 35.863281 45.417969 35.675781 45.238281 C 35.492188 45.054688 35.386719 44.804688 35.390625 44.542969 C 35.386719 44.285156 35.492188 44.03125 35.679688 43.851562 C 35.863281 43.667969 36.117188 43.570312 36.378906 43.578125 C 36.632812 43.570312 36.875 43.664062 37.054688 43.839844 L 37.15625 43.734375 C 36.949219 43.53125 36.667969 43.417969 36.375 43.429688 C 36.070312 43.417969 35.777344 43.53125 35.5625 43.742188 C 35.34375 43.953125 35.222656 44.242188 35.230469 44.542969 C 35.222656 44.84375 35.34375 45.136719 35.558594 45.34375 C 35.777344 45.554688 36.070312 45.667969 36.371094 45.65625 Z M 41.136719 45.65625 C 41.386719 45.675781 41.632812 45.578125 41.804688 45.394531 C 41.976562 45.210938 42.054688 44.960938 42.019531 44.710938 L 42.019531 43.445312 L 41.859375 43.445312 L 41.859375 44.703125 C 41.859375 45.253906 41.597656 45.511719 41.140625 45.511719 C 40.683594 45.511719 40.417969 45.253906 40.417969 44.703125 L 40.417969 43.445312 L 40.253906 43.445312 L 40.253906 44.710938 C 40.21875 44.957031 40.296875 45.210938 40.46875 45.394531 C 40.640625 45.578125 40.886719 45.675781 41.136719 45.65625 Z M 45.703125 45.640625 L 45.863281 45.640625 L 45.863281 43.589844 L 46.65625 43.589844 L 46.65625 43.445312 L 44.910156 43.445312 L 44.910156 43.589844 L 45.703125 43.589844 Z M 54.679688 45.640625 L 54.851562 45.640625 L 53.835938 43.445312 L 53.675781 43.445312 L 52.664062 45.640625 L 52.835938 45.640625 L 53.117188 45.023438 L 54.394531 45.023438 Z M 53.179688 44.890625 L 53.757812 43.621094 L 54.335938 44.890625 Z M 59.46875 43.445312 L 59.46875 45.351562 L 57.972656 43.445312 L 57.835938 43.445312 L 57.835938 45.640625 L 58 45.640625 L 58 43.734375 L 59.496094 45.640625 L 59.628906 45.640625 L 59.628906 43.445312 Z M 62.984375 45.640625 L 63.855469 45.640625 C 64.160156 45.664062 64.460938 45.558594 64.683594 45.351562 C 64.90625 45.140625 65.027344 44.847656 65.023438 44.542969 C 65.027344 44.238281 64.90625 43.945312 64.683594 43.738281 C 64.460938 43.53125 64.160156 43.421875 63.855469 43.445312 L 62.984375 43.445312 Z M 63.144531 45.496094 L 63.144531 43.589844 L 63.839844 43.589844 C 64.105469 43.566406 64.371094 43.65625 64.566406 43.839844 C 64.761719 44.019531 64.871094 44.277344 64.863281 44.542969 C 64.871094 44.808594 64.761719 45.066406 64.566406 45.25 C 64.371094 45.429688 64.105469 45.519531 63.839844 45.496094 Z M 72.140625 45.65625 C 72.6875 45.65625 72.933594 45.386719 72.933594 45.078125 C 72.933594 44.28125 71.558594 44.667969 71.558594 44.011719 C 71.558594 43.769531 71.75 43.570312 72.179688 43.570312 C 72.394531 43.574219 72.605469 43.636719 72.785156 43.757812 L 72.84375 43.628906 C 72.648438 43.496094 72.414062 43.429688 72.179688 43.429688 C 71.640625 43.429688 71.398438 43.703125 71.398438 44.011719 C 71.398438 44.824219 72.773438 44.425781 72.773438 45.085938 C 72.773438 45.324219 72.578125 45.515625 72.136719 45.515625 C 71.871094 45.519531 71.609375 45.421875 71.410156 45.238281 L 71.339844 45.359375 C 71.558594 45.558594 71.84375 45.667969 72.140625 45.65625 Z M 77.699219 43.445312 L 77.699219 44.457031 L 76.226562 44.457031 L 76.226562 43.445312 L 76.066406 43.445312 L 76.066406 45.640625 L 76.226562 45.640625 L 76.226562 44.597656 L 77.699219 44.597656 L 77.699219 45.640625 L 77.859375 45.640625 L 77.859375 43.445312 Z M 82.855469 45.640625 L 83.03125 45.640625 L 82.015625 43.445312 L 81.855469 43.445312 L 80.84375 45.640625 L 81.015625 45.640625 L 81.296875 45.023438 L 82.574219 45.023438 Z M 81.359375 44.890625 L 81.933594 43.621094 L 82.515625 44.890625 Z M 87.367188 43.445312 L 86.476562 45.433594 L 85.585938 43.445312 L 85.410156 43.445312 L 86.390625 45.640625 L 86.550781 45.640625 L 87.535156 43.445312 Z M 90.570312 45.496094 L 90.570312 44.597656 L 91.746094 44.597656 L 91.746094 44.457031 L 90.570312 44.457031 L 90.570312 43.589844 L 91.886719 43.589844 L 91.886719 43.445312 L 90.414062 43.445312 L 90.414062 45.640625 L 91.929688 45.640625 L 91.929688 45.496094 Z M 95.679688 45.65625 C 96.226562 45.65625 96.472656 45.386719 96.472656 45.078125 C 96.472656 44.28125 95.097656 44.667969 95.097656 44.011719 C 95.097656 43.769531 95.289062 43.570312 95.71875 43.570312 C 95.933594 43.574219 96.144531 43.636719 96.324219 43.757812 L 96.382812 43.628906 C 96.1875 43.496094 95.953125 43.429688 95.71875 43.429688 C 95.179688 43.429688 94.9375 43.703125 94.9375 44.011719 C 94.9375 44.824219 96.3125 44.425781 96.3125 45.085938 C 96.3125 45.324219 96.117188 45.515625 95.679688 45.515625 C 95.410156 45.519531 95.148438 45.421875 94.949219 45.238281 L 94.878906 45.359375 C 95.097656 45.558594 95.382812 45.667969 95.679688 45.65625 Z M 95.679688 45.65625 "/>
<path style=" stroke:none;fill-rule:nonzero;fill:rgb(90.196078%,90.588235%,90.980392%);fill-opacity:1;" d="M 100.585938 17.972656 L 64.792969 17.972656 C 64.769531 17.875 64.742188 17.800781 64.71875 17.699219 C 64.351562 16 64.304688 14.25 64.574219 12.535156 C 64.648438 12.042969 64.773438 11.550781 64.867188 11.089844 C 64.960938 10.628906 65.152344 10.144531 65.289062 9.699219 L 65.785156 8.414062 C 65.949219 8 66.171875 7.640625 66.339844 7.292969 C 66.632812 6.726562 66.964844 6.175781 67.328125 5.652344 L 67.722656 5.03125 L 67.152344 5.488281 C 66.636719 5.886719 66.140625 6.316406 65.671875 6.773438 C 65.382812 7.0625 65.039062 7.359375 64.738281 7.71875 L 63.75 8.851562 L 62.804688 10.175781 C 62.527344 10.667969 62.21875 11.136719 61.953125 11.65625 C 61.75 12.09375 61.523438 12.527344 61.339844 12.980469 C 61.242188 12.644531 61.15625 12.320312 61.042969 11.96875 C 60.632812 10.699219 60.136719 9.460938 59.558594 8.253906 C 59.007812 7.058594 58.359375 5.90625 57.621094 4.8125 C 57.296875 4.304688 56.945312 3.820312 56.5625 3.359375 C 56.242188 2.941406 55.898438 2.539062 55.53125 2.160156 L 54.601562 1.210938 L 53.828125 0.550781 L 53.191406 0 L 53.617188 0.761719 C 53.75 0.996094 53.914062 1.289062 54.109375 1.621094 C 54.300781 2 54.464844 2.390625 54.605469 2.789062 C 54.796875 3.242188 54.964844 3.707031 55.097656 4.179688 C 55.28125 4.695312 55.425781 5.222656 55.535156 5.757812 C 55.800781 6.890625 55.972656 8.042969 56.050781 9.203125 C 56.128906 10.351562 56.128906 11.5 56.050781 12.648438 C 55.996094 13.636719 55.890625 14.621094 55.730469 15.597656 C 55.59375 16.449219 55.445312 17.144531 55.320312 17.601562 C 55.3125 17.691406 55.289062 17.777344 55.253906 17.859375 C 55.1875 17.75 55.125 17.644531 55.054688 17.519531 C 54.519531 16.546875 54.152344 15.496094 53.964844 14.410156 C 53.855469 13.800781 53.816406 13.183594 53.851562 12.566406 C 53.855469 12.273438 53.886719 11.980469 53.941406 11.691406 C 53.972656 11.425781 54.027344 11.164062 54.101562 10.90625 C 54.199219 10.503906 54.332031 10.109375 54.503906 9.734375 C 54.617188 9.449219 54.683594 9.285156 54.683594 9.285156 L 54.308594 9.589844 C 53.964844 9.859375 53.644531 10.160156 53.351562 10.488281 C 53.136719 10.699219 52.941406 10.929688 52.769531 11.175781 C 52.554688 11.445312 52.363281 11.726562 52.191406 12.023438 C 51.785156 12.675781 51.453125 13.367188 51.203125 14.09375 C 50.777344 15.339844 50.539062 16.640625 50.496094 17.957031 L 19.339844 17.957031 C 13.03125 17.964844 7.921875 23.066406 7.921875 29.355469 L 7.921875 89.792969 C 7.929688 93.40625 9.652344 96.804688 12.570312 98.953125 L 53.191406 128.808594 C 57.214844 131.789062 62.71875 131.789062 66.742188 128.808594 L 107.367188 98.953125 C 110.28125 96.804688 112.003906 93.410156 112.011719 89.796875 L 112.011719 29.355469 C 112.003906 23.070312 106.890625 17.980469 100.585938 17.972656 Z M 104.308594 94.824219 L 63.679688 124.679688 C 61.472656 126.308594 58.449219 126.308594 56.242188 124.679688 L 15.621094 94.824219 C 14.019531 93.644531 13.074219 91.777344 13.074219 89.792969 L 13.074219 43.597656 C 13.074219 42.710938 13.425781 41.859375 14.054688 41.234375 C 14.683594 40.605469 15.539062 40.253906 16.425781 40.253906 L 103.5 40.253906 C 104.390625 40.25 105.246094 40.601562 105.875 41.230469 C 106.503906 41.859375 106.859375 42.710938 106.855469 43.597656 L 106.855469 89.792969 C 106.855469 91.777344 105.910156 93.644531 104.308594 94.824219 Z M 104.308594 94.824219 "/>
<path style=" stroke:none;fill-rule:nonzero;fill:rgb(8.627451%,13.72549%,26.666667%);fill-opacity:1;" d="M 20.242188 28.722656 L 24.496094 28.722656 L 24.496094 34.789062 C 23.835938 35 23.160156 35.15625 22.472656 35.265625 C 21.6875 35.382812 20.890625 35.433594 20.09375 35.429688 C 18.199219 35.429688 16.726562 34.867188 15.667969 33.742188 C 14.613281 32.621094 14.085938 31.046875 14.085938 29.023438 C 14.058594 27.839844 14.328125 26.667969 14.871094 25.613281 C 15.375 24.65625 16.160156 23.875 17.125 23.378906 C 18.195312 22.84375 19.378906 22.578125 20.574219 22.605469 C 21.855469 22.597656 23.125 22.847656 24.304688 23.339844 L 23.738281 24.621094 C 22.710938 24.164062 21.601562 23.921875 20.480469 23.902344 C 19.148438 23.828125 17.851562 24.320312 16.910156 25.261719 C 16.054688 26.164062 15.625 27.417969 15.625 29.023438 C 15.625 30.707031 16.039062 31.984375 16.863281 32.851562 C 17.6875 33.722656 18.898438 34.15625 20.496094 34.15625 C 21.351562 34.160156 22.207031 34.058594 23.039062 33.859375 L 23.039062 30.019531 L 20.242188 30.019531 Z M 31.246094 35.429688 C 30.023438 35.492188 28.832031 35.03125 27.964844 34.164062 C 27.164062 33.324219 26.765625 32.15625 26.765625 30.660156 C 26.695312 29.367188 27.089844 28.09375 27.882812 27.066406 C 28.617188 26.183594 29.726562 25.691406 30.882812 25.738281 C 31.9375 25.6875 32.960938 26.113281 33.671875 26.894531 C 34.382812 27.746094 34.75 28.832031 34.699219 29.941406 L 34.699219 30.839844 L 28.234375 30.839844 C 28.195312 31.746094 28.492188 32.636719 29.070312 33.339844 C 29.65625 33.929688 30.46875 34.238281 31.300781 34.1875 C 32.328125 34.183594 33.347656 33.972656 34.292969 33.558594 L 34.292969 34.820312 C 33.835938 35.023438 33.359375 35.179688 32.871094 35.289062 C 32.335938 35.390625 31.792969 35.4375 31.246094 35.429688 Z M 30.859375 26.925781 C 30.183594 26.894531 29.527344 27.164062 29.0625 27.65625 C 28.582031 28.226562 28.304688 28.941406 28.269531 29.6875 L 33.171875 29.6875 C 33.222656 28.953125 33.011719 28.226562 32.574219 27.636719 C 32.144531 27.148438 31.511719 26.886719 30.859375 26.925781 Z M 43.539062 35.257812 L 43.539062 29.210938 C 43.585938 28.597656 43.398438 27.984375 43.015625 27.503906 C 42.574219 27.09375 41.980469 26.890625 41.378906 26.941406 C 40.578125 26.871094 39.789062 27.160156 39.222656 27.734375 C 38.765625 28.261719 38.539062 29.136719 38.539062 30.351562 L 38.539062 35.257812 L 37.117188 35.257812 L 37.117188 25.90625 L 38.277344 25.90625 L 38.507812 27.1875 L 38.574219 27.1875 C 38.871094 26.722656 39.296875 26.351562 39.800781 26.117188 C 40.347656 25.859375 40.945312 25.730469 41.550781 25.738281 C 42.683594 25.738281 43.53125 26.007812 44.101562 26.550781 C 44.671875 27.09375 44.957031 27.964844 44.957031 29.160156 L 44.957031 35.257812 Z M 50.90625 34.257812 C 51.148438 34.257812 51.390625 34.242188 51.632812 34.203125 C 51.820312 34.175781 52.007812 34.136719 52.1875 34.089844 L 52.1875 35.171875 C 51.972656 35.265625 51.742188 35.324219 51.507812 35.355469 C 51.242188 35.402344 50.972656 35.425781 50.699219 35.429688 C 48.886719 35.429688 47.980469 34.476562 47.980469 32.570312 L 47.980469 27.007812 L 46.636719 27.007812 L 46.636719 26.324219 L 47.980469 25.738281 L 48.578125 23.742188 L 49.398438 23.742188 L 49.398438 25.90625 L 52.121094 25.90625 L 52.121094 27.007812 L 49.402344 27.007812 L 49.402344 32.511719 C 49.371094 32.976562 49.515625 33.441406 49.804688 33.808594 C 50.085938 34.113281 50.488281 34.277344 50.90625 34.257812 Z M 55.484375 35.257812 L 54.066406 35.257812 L 54.066406 21.984375 L 55.484375 21.984375 Z M 62.460938 35.429688 C 61.238281 35.492188 60.042969 35.03125 59.179688 34.164062 C 58.378906 33.324219 57.976562 32.15625 57.976562 30.660156 C 57.90625 29.367188 58.304688 28.09375 59.09375 27.066406 C 59.832031 26.183594 60.941406 25.691406 62.09375 25.738281 C 63.152344 25.6875 64.175781 26.113281 64.882812 26.894531 C 65.597656 27.746094 65.964844 28.832031 65.910156 29.941406 L 65.910156 30.839844 L 59.449219 30.839844 C 59.410156 31.746094 59.707031 32.636719 60.28125 33.339844 C 60.867188 33.929688 61.679688 34.238281 62.511719 34.1875 C 63.542969 34.183594 64.5625 33.96875 65.507812 33.558594 L 65.507812 34.820312 C 65.050781 35.023438 64.570312 35.179688 64.082031 35.289062 C 63.546875 35.390625 63.003906 35.4375 62.460938 35.429688 Z M 62.074219 26.925781 C 61.394531 26.894531 60.738281 27.164062 60.273438 27.660156 C 59.792969 28.230469 59.515625 28.945312 59.480469 29.6875 L 64.386719 29.6875 C 64.4375 28.957031 64.226562 28.230469 63.789062 27.636719 C 63.359375 27.148438 62.726562 26.886719 62.074219 26.925781 Z M 80.289062 35.257812 L 80.289062 29.175781 C 80.332031 28.578125 80.164062 27.984375 79.808594 27.5 C 79.421875 27.097656 78.875 26.894531 78.320312 26.941406 C 77.585938 26.878906 76.863281 27.160156 76.359375 27.699219 C 75.886719 28.382812 75.660156 29.207031 75.726562 30.035156 L 75.726562 35.257812 L 74.304688 35.257812 L 74.304688 29.175781 C 74.351562 28.578125 74.179688 27.984375 73.828125 27.5 C 73.4375 27.097656 72.886719 26.894531 72.328125 26.941406 C 71.585938 26.878906 70.859375 27.175781 70.371094 27.738281 C 69.960938 28.269531 69.753906 29.140625 69.753906 30.351562 L 69.753906 35.257812 L 68.332031 35.257812 L 68.332031 25.90625 L 69.488281 25.90625 L 69.71875 27.1875 L 69.785156 27.1875 C 70.054688 26.730469 70.449219 26.363281 70.921875 26.121094 C 71.425781 25.859375 71.988281 25.730469 72.558594 25.738281 C 74.027344 25.738281 74.984375 26.265625 75.4375 27.324219 L 75.503906 27.324219 C 75.789062 26.828125 76.210938 26.425781 76.71875 26.164062 C 77.277344 25.871094 77.902344 25.726562 78.53125 25.738281 C 79.40625 25.671875 80.265625 25.964844 80.914062 26.550781 C 81.441406 27.09375 81.707031 27.964844 81.707031 29.160156 L 81.707031 35.257812 Z M 90.40625 35.257812 L 90.121094 33.925781 L 90.054688 33.925781 C 89.6875 34.425781 89.207031 34.835938 88.65625 35.117188 C 88.101562 35.339844 87.507812 35.449219 86.914062 35.429688 C 86.121094 35.476562 85.339844 35.21875 84.726562 34.714844 C 84.175781 34.179688 83.886719 33.433594 83.933594 32.671875 C 83.933594 30.785156 85.449219 29.796875 88.480469 29.703125 L 90.070312 29.652344 L 90.070312 29.074219 C 90.117188 28.492188 89.949219 27.914062 89.597656 27.449219 C 89.1875 27.0625 88.636719 26.871094 88.078125 26.921875 C 87.148438 26.960938 86.242188 27.207031 85.425781 27.640625 L 84.988281 26.558594 C 85.46875 26.300781 85.980469 26.101562 86.507812 25.96875 C 87.046875 25.828125 87.605469 25.753906 88.164062 25.753906 C 89.28125 25.753906 90.109375 26.003906 90.648438 26.496094 C 91.191406 26.992188 91.460938 27.785156 91.460938 28.878906 L 91.460938 35.257812 Z M 87.195312 34.257812 C 87.960938 34.300781 88.707031 34.042969 89.28125 33.535156 C 89.808594 32.992188 90.082031 32.257812 90.035156 31.503906 L 90.035156 30.660156 L 88.617188 30.71875 C 87.769531 30.691406 86.933594 30.871094 86.171875 31.242188 C 85.671875 31.550781 85.386719 32.105469 85.421875 32.691406 C 85.390625 33.128906 85.5625 33.558594 85.886719 33.859375 C 86.261719 34.144531 86.726562 34.289062 87.195312 34.257812 Z M 100.804688 35.257812 L 100.804688 29.210938 C 100.851562 28.597656 100.664062 27.984375 100.28125 27.503906 C 99.839844 27.09375 99.246094 26.890625 98.648438 26.941406 C 97.84375 26.871094 97.054688 27.160156 96.488281 27.734375 C 96.03125 28.261719 95.804688 29.136719 95.804688 30.351562 L 95.804688 35.257812 L 94.382812 35.257812 L 94.382812 25.90625 L 95.539062 25.90625 L 95.769531 27.1875 L 95.839844 27.1875 C 96.136719 26.722656 96.558594 26.351562 97.0625 26.117188 C 97.609375 25.859375 98.210938 25.730469 98.816406 25.738281 C 99.945312 25.738281 100.796875 26.011719 101.367188 26.554688 C 101.9375 27.097656 102.222656 27.964844 102.21875 29.160156 L 102.21875 35.257812 Z M 100.804688 35.257812 "/>
<path style=" stroke:none;fill-rule:nonzero;fill:rgb(96.470588%,57.254902%,11.764706%);fill-opacity:1;" d="M 102.035156 10.246094 L 69.453125 10.246094 C 69.476562 9.75 69.527344 9.253906 69.601562 8.765625 C 69.765625 7.640625 70.070312 6.542969 70.515625 5.496094 C 70.65625 5.140625 70.820312 4.796875 71.007812 4.460938 L 71.21875 4.074219 L 70.890625 4.367188 C 70.589844 4.628906 70.308594 4.910156 70.046875 5.207031 C 69.226562 6.121094 68.527344 7.136719 67.960938 8.226562 C 67.601562 8.894531 66.28125 11.261719 66.144531 13.671875 L 102 13.671875 C 109.996094 13.660156 116.492188 20.109375 116.503906 28.078125 L 116.503906 90.746094 C 116.496094 95.230469 114.359375 99.449219 110.742188 102.113281 L 62.472656 137.589844 C 60.988281 138.691406 58.953125 138.691406 57.464844 137.589844 L 9.195312 102.113281 C 5.589844 99.441406 3.460938 95.226562 3.457031 90.75 L 3.457031 28.078125 C 3.46875 20.121094 9.9375 13.675781 17.917969 13.664062 L 49.613281 13.664062 L 50.921875 10.246094 C 51.101562 9.554688 51.242188 8.851562 51.335938 8.144531 C 51.507812 6.929688 51.527344 5.695312 51.390625 4.476562 C 51.347656 4.085938 51.28125 3.695312 51.1875 3.3125 C 51.125 3.039062 51.089844 2.878906 51.089844 2.878906 C 51.082031 3.027344 51.066406 3.171875 51.039062 3.316406 C 51.003906 3.699219 50.9375 4.082031 50.847656 4.453125 C 50.59375 5.5625 50.203125 6.640625 49.6875 7.652344 C 49.214844 8.5625 48.664062 9.433594 48.039062 10.246094 L 17.925781 10.246094 C 8.035156 10.238281 0.0117188 18.222656 0 28.078125 L 0 90.746094 C 0.0117188 96.320312 2.664062 101.554688 7.15625 104.867188 L 55.429688 140.34375 C 58.125 142.335938 61.8125 142.335938 64.507812 140.34375 L 112.777344 104.867188 C 117.269531 101.554688 119.925781 96.320312 119.933594 90.746094 L 119.933594 28.078125 C 119.921875 18.230469 111.914062 10.253906 102.035156 10.246094 Z M 102.035156 10.246094 "/>
<path style=" stroke:none;fill-rule:nonzero;fill:rgb(90.196078%,90.588235%,90.980392%);fill-opacity:1;" d="M 63.074219 60.09375 C 65.863281 62.5 68.011719 63.765625 71.683594 61.4375 C 68.84375 65.441406 65.191406 66.914062 61.316406 65.996094 C 59.574219 65.582031 58.707031 62.972656 59.671875 61.023438 C 60.398438 59.535156 61.933594 59.105469 63.074219 60.09375 Z M 63.074219 60.09375 "/>
<path style=" stroke:none;fill-rule:nonzero;fill:rgb(90.196078%,90.588235%,90.980392%);fill-opacity:1;" d="M 55.785156 60.09375 C 52.996094 62.5 50.847656 63.765625 47.175781 61.4375 C 50.011719 65.441406 53.664062 66.914062 57.539062 65.996094 C 59.28125 65.582031 60.152344 62.972656 59.179688 61.023438 C 58.4375 59.535156 56.910156 59.105469 55.785156 60.09375 Z M 55.785156 60.09375 "/>
<path style=" stroke:none;fill-rule:nonzero;fill:rgb(96.470588%,57.254902%,11.764706%);fill-opacity:1;" d="M 40.1875 74.605469 L 47.886719 83.269531 C 48.726562 84.214844 49.476562 85.234375 50.125 86.320312 L 54.523438 93.65625 L 58.265625 85.5 C 57.675781 85.410156 55.953125 85.035156 53.175781 83.414062 C 50.964844 81.445312 45.929688 75.5 43.101562 72.066406 C 42.050781 70.761719 41.757812 69.007812 42.328125 67.4375 C 43.394531 64.183594 42.710938 60.609375 40.519531 57.972656 C 38.625 55.597656 35.753906 54.199219 32.707031 54.167969 C 30.707031 54.15625 28.761719 54.835938 27.203125 56.089844 C 23.253906 59.257812 22.871094 65.261719 26.289062 69.472656 C 28.1875 71.847656 31.050781 73.242188 34.09375 73.277344 C 34.644531 73.277344 35.195312 73.226562 35.734375 73.128906 C 37.371094 72.824219 39.050781 73.382812 40.175781 74.605469 Z M 34.097656 70.429688 C 31.914062 70.394531 29.863281 69.382812 28.507812 67.675781 C 26.074219 64.683594 26.296875 60.472656 29.003906 58.292969 C 30.058594 57.449219 31.375 56.992188 32.730469 57.003906 C 34.914062 57.039062 36.964844 58.050781 38.320312 59.757812 C 40.753906 62.757812 40.53125 66.960938 37.824219 69.148438 C 36.765625 69.988281 35.449219 70.441406 34.097656 70.429688 Z M 34.097656 70.429688 "/>
<path style=" stroke:none;fill-rule:nonzero;fill:rgb(96.470588%,57.254902%,11.764706%);fill-opacity:1;" d="M 63.445312 96.25 L 59.765625 102.390625 L 81.355469 138.4375 C 81.847656 135.632812 80.121094 132.582031 80.121094 132.582031 Z M 63.445312 96.25 "/>
<path style=" stroke:none;fill-rule:nonzero;fill:rgb(8.627451%,13.72549%,26.666667%);fill-opacity:1;" d="M 38.3125 59.761719 C 36.957031 58.054688 34.90625 57.042969 32.722656 57.003906 C 31.371094 56.992188 30.050781 57.449219 28.996094 58.292969 C 26.296875 60.472656 26.074219 64.691406 28.503906 67.675781 C 29.855469 69.386719 31.90625 70.398438 34.089844 70.433594 C 35.445312 70.445312 36.761719 69.992188 37.816406 69.148438 C 40.523438 66.964844 40.746094 62.757812 38.3125 59.761719 Z M 34.097656 69.226562 C 30.632812 69.09375 27.925781 66.195312 28.039062 62.742188 C 28.082031 61.382812 28.710938 60.101562 29.761719 59.234375 C 30.601562 58.5625 31.648438 58.203125 32.722656 58.214844 C 36.1875 58.347656 38.894531 61.242188 38.78125 64.695312 C 38.738281 66.058594 38.113281 67.339844 37.058594 68.207031 C 36.21875 68.878906 35.171875 69.238281 34.097656 69.226562 Z M 34.097656 69.226562 "/>
<path style=" stroke:none;fill-rule:nonzero;fill:rgb(96.470588%,57.254902%,11.764706%);fill-opacity:1;" d="M 99.027344 51.171875 C 97.867188 50.371094 96.492188 49.933594 95.078125 49.921875 C 92.546875 49.921875 90.222656 51.328125 88.546875 52.871094 C 87.695312 53.695312 86.5625 54.164062 85.378906 54.191406 C 82.148438 54.253906 79.140625 55.832031 77.253906 58.445312 C 75.371094 61.058594 74.832031 64.40625 75.800781 67.476562 C 76.367188 69.046875 76.074219 70.800781 75.03125 72.105469 C 72.199219 75.550781 67.160156 81.488281 64.949219 83.453125 C 61.496094 85.488281 59.613281 85.566406 59.613281 85.566406 L 38.011719 132.578125 C 38.011719 132.578125 36.292969 135.628906 36.773438 138.433594 L 67.992188 86.316406 C 68.640625 85.234375 69.390625 84.214844 70.226562 83.273438 L 77.925781 74.625 C 78.835938 73.609375 80.136719 73.035156 81.503906 73.046875 C 81.808594 73.042969 82.113281 73.070312 82.410156 73.125 C 82.945312 73.222656 83.488281 73.273438 84.027344 73.273438 C 87.066406 73.234375 89.929688 71.839844 91.820312 69.46875 C 95.242188 65.257812 94.832031 59.253906 90.90625 56.085938 C 90.691406 55.898438 90.570312 55.628906 90.570312 55.347656 C 90.570312 55.0625 90.691406 54.792969 90.90625 54.605469 C 91.988281 53.683594 93.449219 52.792969 95.039062 52.792969 C 95.921875 52.796875 96.785156 53.070312 97.507812 53.578125 C 97.742188 53.734375 98.019531 53.820312 98.304688 53.820312 C 98.875 53.820312 99.386719 53.488281 99.613281 52.96875 C 99.878906 52.308594 99.632812 51.550781 99.027344 51.171875 Z M 89.609375 67.699219 C 88.253906 69.40625 86.203125 70.417969 84.019531 70.453125 C 82.667969 70.464844 81.351562 70.011719 80.296875 69.167969 C 77.59375 66.984375 77.375 62.773438 79.804688 59.78125 C 81.15625 58.074219 83.207031 57.0625 85.390625 57.023438 C 86.746094 57.011719 88.0625 57.46875 89.117188 58.316406 C 91.820312 60.472656 92.039062 64.6875 89.609375 67.675781 Z M 89.609375 67.699219 "/>
<path style=" stroke:none;fill-rule:nonzero;fill:rgb(8.627451%,13.72549%,26.666667%);fill-opacity:1;" d="M 99.71875 50.148438 C 98.355469 49.199219 96.738281 48.6875 95.078125 48.667969 C 92.609375 48.667969 90.011719 49.832031 87.722656 51.945312 C 87.089844 52.550781 86.253906 52.902344 85.378906 52.929688 C 81.761719 52.996094 78.390625 54.753906 76.277344 57.679688 C 74.164062 60.605469 73.5625 64.351562 74.652344 67.789062 C 75.078125 68.957031 74.867188 70.261719 74.09375 71.234375 C 70.609375 75.464844 66.195312 80.582031 64.21875 82.363281 C 61.183594 84.117188 59.546875 84.257812 59.53125 84.257812 L 59.179688 84.28125 L 58.582031 84.257812 C 58.582031 84.257812 56.941406 84.117188 53.910156 82.363281 C 51.9375 80.570312 47.535156 75.472656 44.039062 71.234375 C 43.265625 70.257812 43.054688 68.957031 43.480469 67.789062 C 44.566406 64.34375 43.957031 60.59375 41.839844 57.664062 C 39.71875 54.738281 36.335938 52.980469 32.714844 52.921875 C 30.429688 52.902344 28.210938 53.675781 26.433594 55.105469 C 24.261719 56.875 22.9375 59.472656 22.78125 62.265625 C 22.601562 65.390625 23.707031 68.453125 25.839844 70.75 C 27.972656 73.046875 30.953125 74.378906 34.09375 74.4375 C 34.714844 74.4375 35.339844 74.382812 35.953125 74.269531 C 36.179688 74.230469 36.410156 74.207031 36.640625 74.207031 C 37.644531 74.199219 38.605469 74.621094 39.28125 75.367188 C 42.015625 78.449219 45.242188 82.074219 46.988281 84.03125 C 47.777344 84.921875 48.480469 85.882812 49.09375 86.898438 L 53.914062 94.949219 L 36.910156 132 C 36.667969 132.441406 35.046875 135.578125 35.5625 138.597656 L 36.109375 141.828125 L 37.796875 139.015625 L 59.058594 103.53125 L 80.316406 139.015625 L 82 141.828125 L 82.550781 138.597656 C 83.046875 135.578125 81.441406 132.441406 81.199219 132 L 64.195312 94.949219 L 69.019531 86.894531 C 69.628906 85.878906 70.332031 84.921875 71.121094 84.035156 C 72.855469 82.070312 76.058594 78.460938 78.820312 75.386719 C 79.5 74.632812 80.472656 74.203125 81.488281 74.210938 C 81.722656 74.210938 81.957031 74.234375 82.183594 74.273438 C 82.789062 74.382812 83.402344 74.4375 84.015625 74.4375 C 87.429688 74.414062 90.644531 72.851562 92.765625 70.1875 C 94.59375 67.964844 95.511719 65.132812 95.332031 62.265625 C 95.175781 59.566406 93.929688 57.042969 91.875 55.277344 C 92.683594 54.621094 93.851562 53.921875 95.011719 53.921875 C 95.652344 53.929688 96.277344 54.132812 96.800781 54.503906 C 97.449219 54.945312 98.257812 55.074219 99.011719 54.855469 C 99.761719 54.640625 100.378906 54.101562 100.691406 53.386719 C 101.179688 52.210938 100.773438 50.859375 99.71875 50.148438 Z M 99.613281 52.9375 C 99.386719 53.453125 98.875 53.789062 98.304688 53.789062 C 98.023438 53.789062 97.742188 53.703125 97.507812 53.546875 C 96.785156 53.039062 95.921875 52.761719 95.039062 52.757812 C 93.449219 52.757812 91.988281 53.648438 90.90625 54.574219 C 90.695312 54.761719 90.570312 55.03125 90.570312 55.3125 C 90.570312 55.597656 90.695312 55.867188 90.90625 56.054688 C 94.855469 59.222656 95.242188 65.222656 91.820312 69.4375 C 89.925781 71.808594 87.058594 73.207031 84.015625 73.238281 C 83.472656 73.238281 82.929688 73.191406 82.398438 73.09375 C 82.097656 73.039062 81.792969 73.011719 81.488281 73.011719 C 80.125 73.003906 78.820312 73.578125 77.910156 74.59375 L 70.214844 83.242188 C 69.375 84.183594 68.625 85.203125 67.976562 86.28125 L 36.761719 138.433594 C 36.269531 135.628906 38 132.578125 38 132.578125 L 59.59375 85.527344 C 59.59375 85.527344 61.449219 85.449219 64.929688 83.414062 C 67.140625 81.445312 72.175781 75.5 75.011719 72.066406 C 76.058594 70.761719 76.347656 69.007812 75.78125 67.4375 C 74.820312 64.367188 75.363281 61.03125 77.25 58.421875 C 79.132812 55.816406 82.136719 54.242188 85.359375 54.175781 C 86.542969 54.152344 87.675781 53.679688 88.527344 52.859375 C 90.207031 51.308594 92.527344 49.90625 95.058594 49.90625 C 96.472656 49.921875 97.847656 50.355469 99.007812 51.15625 C 99.605469 51.535156 99.851562 52.28125 99.59375 52.9375 Z M 81.355469 138.433594 L 59.765625 102.390625 L 63.445312 96.25 L 80.117188 132.578125 C 80.117188 132.578125 81.832031 135.628906 81.355469 138.433594 Z M 34.097656 73.273438 C 31.054688 73.238281 28.1875 71.839844 26.292969 69.46875 C 22.871094 65.257812 23.28125 59.253906 27.207031 56.085938 C 28.765625 54.832031 30.714844 54.152344 32.71875 54.167969 C 35.765625 54.199219 38.632812 55.597656 40.53125 57.972656 C 42.722656 60.609375 43.402344 64.179688 42.335938 67.433594 C 41.765625 69.007812 42.0625 70.761719 43.109375 72.066406 C 45.941406 75.507812 50.976562 81.449219 53.1875 83.410156 C 55.960938 85.035156 57.683594 85.410156 58.277344 85.496094 L 54.535156 93.65625 L 50.136719 86.320312 C 49.488281 85.234375 48.734375 84.214844 47.894531 83.269531 L 40.1875 74.605469 C 39.0625 73.378906 37.382812 72.820312 35.746094 73.125 C 35.203125 73.226562 34.648438 73.273438 34.097656 73.273438 Z M 34.097656 73.273438 "/>
<path style=" stroke:none;fill-rule:nonzero;fill:rgb(8.627451%,13.72549%,26.666667%);fill-opacity:1;" d="M 85.402344 57.003906 C 83.21875 57.042969 81.167969 58.054688 79.8125 59.761719 C 77.386719 62.757812 77.601562 66.964844 80.308594 69.148438 C 81.363281 69.992188 82.679688 70.445312 84.03125 70.433594 C 86.214844 70.398438 88.265625 69.386719 89.621094 67.675781 C 92.054688 64.6875 91.832031 60.472656 89.125 58.292969 C 88.070312 57.449219 86.753906 56.992188 85.402344 57.003906 Z M 81.066406 68.207031 C 80.015625 67.339844 79.386719 66.058594 79.34375 64.695312 C 79.285156 63.179688 79.785156 61.695312 80.757812 60.523438 C 81.882812 59.101562 83.585938 58.257812 85.402344 58.214844 C 86.480469 58.203125 87.527344 58.5625 88.363281 59.234375 C 90.546875 60.996094 90.6875 64.441406 88.675781 66.914062 C 87.550781 68.339844 85.847656 69.1875 84.03125 69.226562 C 82.949219 69.242188 81.902344 68.882812 81.058594 68.210938 Z M 81.066406 68.207031 "/>
<path style=" stroke:none;fill-rule:nonzero;fill:rgb(8.627451%,13.72549%,26.666667%);fill-opacity:1;" d="M 61.335938 94.222656 C 60.96875 93.179688 59.976562 92.484375 58.867188 92.492188 C 58.574219 92.488281 58.28125 92.539062 58.003906 92.636719 C 56.648438 93.113281 55.9375 94.59375 56.414062 95.945312 C 56.890625 97.296875 58.378906 98.003906 59.734375 97.53125 C 61.085938 97.054688 61.800781 95.574219 61.320312 94.222656 Z M 59.855469 93.730469 Z M 58.371094 93.519531 C 58.546875 93.457031 58.730469 93.421875 58.917969 93.425781 C 59.101562 93.425781 59.285156 93.460938 59.457031 93.523438 L 57.636719 96.101562 C 57.515625 95.953125 57.421875 95.789062 57.359375 95.609375 C 57.066406 94.769531 57.496094 93.847656 58.332031 93.53125 Z M 57.960938 96.410156 Z M 59.445312 96.621094 C 59.269531 96.683594 59.082031 96.714844 58.894531 96.714844 C 58.730469 96.714844 58.5625 96.691406 58.402344 96.640625 L 60.214844 94.074219 C 60.316406 94.210938 60.398438 94.363281 60.457031 94.523438 C 60.605469 94.9375 60.582031 95.398438 60.386719 95.796875 C 60.195312 96.191406 59.847656 96.496094 59.429688 96.636719 Z M 59.445312 96.621094 "/>
</g>
</svg>
