<svg xmlns="http://www.w3.org/2000/svg" width="266.853" height="316.642" viewBox="0 0 266.853 316.642"><path d="M4.487-4.9v2.254H1.211V-4.9H.854V0h.357V-2.331H4.487V0h.357V-4.9ZM15.967,0h.385L14.1-4.9h-.357L11.487,0h.385l.623-1.379h2.842ZM12.635-1.68l1.281-2.828L15.2-1.68ZM22.995,0h.357V-4.9h-.357ZM34.622,0,33.4-1.715a1.5,1.5,0,0,0,1.148-1.533c0-1.036-.742-1.652-1.974-1.652H30.814V0h.357V-1.6h1.4a3.459,3.459,0,0,0,.476-.035L34.216,0ZM31.171-1.918v-2.66h1.4c1.05,0,1.61.483,1.61,1.33s-.56,1.33-1.61,1.33ZM43.68.035a2.341,2.341,0,0,0,1.743-.686L45.2-.882a2.057,2.057,0,0,1-1.505.588A2.128,2.128,0,0,1,41.5-2.45a2.128,2.128,0,0,1,2.2-2.156,2.051,2.051,0,0,1,1.505.581l.224-.231a2.336,2.336,0,0,0-1.743-.679A2.447,2.447,0,0,0,41.139-2.45,2.447,2.447,0,0,0,43.68.035Zm10.6,0a1.85,1.85,0,0,0,1.967-2.114V-4.9h-.357v2.807c0,1.225-.581,1.8-1.6,1.8s-1.61-.574-1.61-1.8V-4.9h-.357v2.821A1.845,1.845,0,0,0,54.285.035ZM64.441,0H64.8V-4.578h1.764V-4.9H62.677v.322h1.764ZM84.412,0H84.8L82.543-4.9h-.357L79.932,0h.385l.623-1.379h2.842ZM81.08-1.68l1.281-2.828L83.649-1.68ZM95.073-4.9V-.644L91.741-4.9h-.3V0H91.8V-4.256L95.136,0h.294V-4.9ZM102.892,0h1.939a2.418,2.418,0,0,0,2.6-2.45,2.418,2.418,0,0,0-2.6-2.45h-1.939Zm.357-.322V-4.578H104.8a2.088,2.088,0,0,1,2.275,2.128A2.088,2.088,0,0,1,104.8-.322Zm20.02.357c1.211,0,1.764-.6,1.764-1.295,0-1.778-3.059-.91-3.059-2.38,0-.539.427-.98,1.379-.98a2.422,2.422,0,0,1,1.344.413l.133-.287a2.629,2.629,0,0,0-1.477-.441c-1.2,0-1.736.609-1.736,1.3,0,1.806,3.059.924,3.059,2.394,0,.532-.434.959-1.414.959A2.33,2.33,0,0,1,121.645-.9l-.161.266A2.512,2.512,0,0,0,123.269.035ZM135.631-4.9v2.254h-3.276V-4.9H132V0h.357V-2.331h3.276V0h.357V-4.9ZM147.111,0h.385l-2.254-4.9h-.357L142.631,0h.385l.623-1.379h2.842Zm-3.332-1.68,1.281-2.828,1.288,2.828ZM157.145-4.9,155.164-.462,153.183-4.9h-.392L154.975,0h.357l2.184-4.9Zm7.131,4.578V-2.331h2.611v-.315h-2.611V-4.578H167.2V-4.9h-3.276V0H167.3V-.322Zm11.368.357c1.211,0,1.764-.6,1.764-1.295,0-1.778-3.059-.91-3.059-2.38,0-.539.427-.98,1.379-.98a2.422,2.422,0,0,1,1.344.413l.133-.287a2.629,2.629,0,0,0-1.477-.441c-1.2,0-1.736.609-1.736,1.3,0,1.806,3.059.924,3.059,2.394,0,.532-.434.959-1.414.959A2.33,2.33,0,0,1,174.02-.9l-.161.266A2.512,2.512,0,0,0,175.644.035Z" transform="translate(37.246 101.89)" fill="#c0bcbd"/><path d="M222.228,40.124H142.584c-.055-.22-.11-.384-.165-.615a31.414,31.414,0,0,1-.319-11.522c.165-1.1.439-2.2.648-3.229s.637-2.109.945-3.108l1.1-2.867c.362-.923.857-1.724,1.23-2.5a34.788,34.788,0,0,1,2.2-3.669l.879-1.384-1.263,1.021a37.341,37.341,0,0,0-3.3,2.867c-.637.648-1.406,1.307-2.076,2.109l-2.2,2.537-2.1,2.955c-.615,1.1-1.307,2.142-1.9,3.3-.45.978-.956,1.944-1.362,2.955-.22-.747-.406-1.472-.659-2.252a67,67,0,0,0-3.3-8.293,55,55,0,0,0-4.317-7.689A32.666,32.666,0,0,0,124.274,7.5a30.568,30.568,0,0,0-2.3-2.68L119.913,2.7,118.189,1.23,116.772,0l.945,1.7c.3.527.659,1.175,1.1,1.922a21.855,21.855,0,0,1,1.1,2.6,26.854,26.854,0,0,1,1.1,3.108,27.042,27.042,0,0,1,.967,3.526,48.459,48.459,0,0,1,1.153,7.689,58.489,58.489,0,0,1,0,7.689,62.222,62.222,0,0,1-.714,6.59c-.308,1.9-.637,3.449-.912,4.47a1.669,1.669,0,0,1-.154.571c-.143-.242-.286-.472-.439-.758a22.353,22.353,0,0,1-2.427-6.942,17.925,17.925,0,0,1-.253-4.108,12.279,12.279,0,0,1,.2-1.955,10.346,10.346,0,0,1,.362-1.757,14.279,14.279,0,0,1,.89-2.614c.253-.637.406-1,.406-1l-.835.681a15.543,15.543,0,0,0-2.131,2,11.511,11.511,0,0,0-1.3,1.538,15.378,15.378,0,0,0-1.285,1.889,22.978,22.978,0,0,0-2.2,4.624,29.9,29.9,0,0,0-1.571,8.622H41.456A25.439,25.439,0,0,0,16.05,65.53V200.455A25.494,25.494,0,0,0,26.386,220.9l90.386,66.65a25.263,25.263,0,0,0,30.151,0l90.386-66.65a25.494,25.494,0,0,0,10.336-20.441V65.53a25.439,25.439,0,0,0-25.417-25.406Zm8.282,171.557-90.4,66.65a13.9,13.9,0,0,1-16.553,0l-90.375-66.65a13.949,13.949,0,0,1-5.668-11.225V97.328a7.458,7.458,0,0,1,7.458-7.469H228.708a7.458,7.458,0,0,1,7.469,7.469V200.455a13.95,13.95,0,0,1-5.668,11.226Z" transform="translate(1.579)" fill="#e6e7e8"/><path d="M16.072-14.587h9.464v13.54A30.426,30.426,0,0,1,21.042.019a34.215,34.215,0,0,1-5.294.362Q9.426.381,5.9-3.38T2.38-13.92a15.925,15.925,0,0,1,1.742-7.608,11.784,11.784,0,0,1,5.018-4.989,16.255,16.255,0,0,1,7.674-1.723,20.973,20.973,0,0,1,8.3,1.638l-1.257,2.856a18.548,18.548,0,0,0-7.255-1.6,10.389,10.389,0,0,0-7.941,3.028q-2.856,3.028-2.856,8.4,0,5.637,2.752,8.55t8.084,2.914A24.018,24.018,0,0,0,22.3-3.123v-8.569H16.072ZM40.562.381a9.589,9.589,0,0,1-7.3-2.818q-2.676-2.818-2.676-7.827a12.1,12.1,0,0,1,2.485-8.017,8.255,8.255,0,0,1,6.675-2.971,7.871,7.871,0,0,1,6.208,2.58,9.89,9.89,0,0,1,2.285,6.808v2H33.858a8.273,8.273,0,0,0,1.857,5.58,6.422,6.422,0,0,0,4.961,1.9A16.811,16.811,0,0,0,47.341-3.79V-.971A16.729,16.729,0,0,1,44.17.067,17.818,17.818,0,0,1,40.562.381ZM39.7-18.6A5.162,5.162,0,0,0,35.7-16.967a7.549,7.549,0,0,0-1.761,4.532H44.846a6.95,6.95,0,0,0-1.333-4.58A4.692,4.692,0,0,0,39.7-18.6ZM67.907,0V-13.5a5.447,5.447,0,0,0-1.162-3.809,4.732,4.732,0,0,0-3.637-1.257,6,6,0,0,0-4.8,1.771q-1.523,1.771-1.523,5.846V0H53.625V-20.871H56.2l.514,2.856h.152a6.455,6.455,0,0,1,2.723-2.39,8.848,8.848,0,0,1,3.9-.847q3.771,0,5.675,1.819t1.9,5.818V0ZM84.3-2.228a10.326,10.326,0,0,0,1.619-.124,10.478,10.478,0,0,0,1.238-.257V-.19a5.779,5.779,0,0,1-1.514.409,11.369,11.369,0,0,1-1.8.162Q77.791.381,77.791-6V-18.415H74.8v-1.523l2.99-1.314,1.333-4.456h1.828v4.837h6.056v2.457H80.952V-6.132a4.225,4.225,0,0,0,.9,2.895A3.115,3.115,0,0,0,84.3-2.228ZM94.491,0H91.33V-29.631h3.161Zm15.52.381a9.589,9.589,0,0,1-7.3-2.818q-2.676-2.818-2.676-7.827a12.1,12.1,0,0,1,2.485-8.017,8.255,8.255,0,0,1,6.675-2.971,7.871,7.871,0,0,1,6.208,2.58,9.89,9.89,0,0,1,2.285,6.808v2H103.308a8.273,8.273,0,0,0,1.857,5.58,6.422,6.422,0,0,0,4.961,1.9,16.811,16.811,0,0,0,6.665-1.409V-.971A16.729,16.729,0,0,1,113.62.067,17.818,17.818,0,0,1,110.011.381ZM109.154-18.6a5.162,5.162,0,0,0-4.009,1.638,7.549,7.549,0,0,0-1.761,4.532H114.3a6.95,6.95,0,0,0-1.333-4.58A4.692,4.692,0,0,0,109.154-18.6ZM149.678,0V-13.578a5.636,5.636,0,0,0-1.066-3.742,4.125,4.125,0,0,0-3.313-1.247,5.35,5.35,0,0,0-4.361,1.695,8.055,8.055,0,0,0-1.409,5.218V0h-3.161V-13.578A5.636,5.636,0,0,0,135.3-17.32a4.15,4.15,0,0,0-3.333-1.247,5.162,5.162,0,0,0-4.351,1.781q-1.381,1.781-1.381,5.837V0h-3.161V-20.871h2.571l.514,2.856h.152a6.213,6.213,0,0,1,2.523-2.38,7.709,7.709,0,0,1,3.647-.857q4.894,0,6.4,3.542h.152a6.655,6.655,0,0,1,2.7-2.59,8.391,8.391,0,0,1,4.037-.952,7.067,7.067,0,0,1,5.3,1.819q1.761,1.819,1.761,5.818V0Zm22.509,0-.628-2.971h-.152a8.782,8.782,0,0,1-3.114,2.656,9.49,9.49,0,0,1-3.875.7,6.971,6.971,0,0,1-4.865-1.6A5.834,5.834,0,0,1,157.79-5.77q0-6.322,10.112-6.627l3.542-.114v-1.295a5.291,5.291,0,0,0-1.057-3.628,4.347,4.347,0,0,0-3.38-1.171,13.773,13.773,0,0,0-5.9,1.6l-.971-2.418a14.855,14.855,0,0,1,3.38-1.314,14.64,14.64,0,0,1,3.685-.476q3.732,0,5.532,1.657t1.8,5.313V0Zm-7.141-2.228a6.416,6.416,0,0,0,4.637-1.619,5.988,5.988,0,0,0,1.685-4.532v-1.885l-3.161.133A11.5,11.5,0,0,0,162.77-8.96,3.531,3.531,0,0,0,161.1-5.732a3.257,3.257,0,0,0,1.038,2.609A4.308,4.308,0,0,0,165.045-2.228ZM195.324,0V-13.5a5.447,5.447,0,0,0-1.162-3.809,4.732,4.732,0,0,0-3.637-1.257,6,6,0,0,0-4.8,1.771Q184.2-15.025,184.2-10.95V0h-3.161V-20.871h2.571l.514,2.856h.152A6.455,6.455,0,0,1,187-20.4a8.848,8.848,0,0,1,3.9-.847q3.771,0,5.675,1.819t1.9,5.818V0Z" transform="translate(28.964 78.708)" fill="#162344"/><path d="M227.025,22.293H154.532a31.972,31.972,0,0,1,.33-3.3,29.954,29.954,0,0,1,2.032-7.3,18.911,18.911,0,0,1,1.1-2.307l.472-.868-.736.659a20.868,20.868,0,0,0-1.878,1.867,32.238,32.238,0,0,0-4.635,6.744c-.8,1.494-3.745,6.777-4.042,12.159h79.776a32.216,32.216,0,0,1,32.271,32.161v139.9A31.623,31.623,0,0,1,246.4,227.383L139,306.577a9.325,9.325,0,0,1-11.138,0l-107.4-79.194A31.644,31.644,0,0,1,7.689,202.011V62.109A32.227,32.227,0,0,1,39.871,29.927h70.516l2.911-7.634a38.1,38.1,0,0,0,.923-4.69,32.259,32.259,0,0,0,.121-8.183,19.913,19.913,0,0,0-.45-2.6c-.143-.615-.22-.967-.22-.967a6.181,6.181,0,0,1-.11.978,18.057,18.057,0,0,1-.428,2.537,30.634,30.634,0,0,1-2.581,7.14,38.344,38.344,0,0,1-3.669,5.788h-67A39.86,39.86,0,0,0,0,62.109v139.9a39.3,39.3,0,0,0,15.927,31.524l107.4,79.194a16.948,16.948,0,0,0,20.2,0l107.4-79.194a39.3,39.3,0,0,0,15.927-31.524V62.109a39.86,39.86,0,0,0-39.827-39.816Z" transform="translate(0 0.576)" fill="#f6921e"/><path d="M128.528,122.247c6.206,5.371,10.984,8.194,19.156,3-6.316,8.93-14.444,12.225-23.066,10.171-3.877-.923-5.81-6.744-3.658-11.1h0C122.575,120.995,125.991,120.039,128.528,122.247Z" transform="translate(11.813 11.91)" fill="#e6e7e8"/><path d="M114.716,122.247c-6.206,5.371-10.984,8.194-19.156,3,6.316,8.93,14.444,12.225,23.066,10.171,3.877-.923,5.81-6.744,3.647-11.1h0C120.625,120.995,117.22,120.039,114.716,122.247Z" transform="translate(9.402 11.91)" fill="#e6e7e8"/><path d="M77.56,123.462a13.554,13.554,0,0,0-10.336-5.151,10.3,10.3,0,0,0-6.59,2.274,10.588,10.588,0,0,0-3.833,7.831A14.026,14.026,0,0,0,70.278,142.9a10.369,10.369,0,0,0,6.59-2.274,10.61,10.61,0,0,0,3.833-7.842,13.686,13.686,0,0,0-3.141-9.325Z" transform="translate(5.588 11.64)" fill="none"/><path d="M181.471,137.74c4.481-5.492,4.163-13.181-.692-17.146a10.281,10.281,0,0,0-6.59-2.274,13.554,13.554,0,0,0-10.336,5.151,13.741,13.741,0,0,0-3.141,9.314,10.61,10.61,0,0,0,3.833,7.842,10.369,10.369,0,0,0,6.59,2.274,13.565,13.565,0,0,0,10.336-5.162Z" transform="translate(15.811 11.641)" fill="none"/><path d="M84.644,155.717l17.124,19.343a44.386,44.386,0,0,1,4.987,6.81l9.787,16.377,8.326-18.211c-1.318-.2-5.151-1.032-11.324-4.657-4.921-4.394-16.124-17.662-22.418-25.329A10.709,10.709,0,0,1,89.4,139.713a22.253,22.253,0,0,0-4.02-21.122A22.517,22.517,0,0,0,68,110.09a19.332,19.332,0,0,0-12.247,4.295c-8.787,7.074-9.644,20.474-2.032,29.876a22.528,22.528,0,0,0,17.365,8.491,20.287,20.287,0,0,0,3.647-.33,10.72,10.72,0,0,1,9.885,3.3ZM71.09,146.4a16.19,16.19,0,0,1-12.434-6.151c-5.415-6.678-4.921-16.08,1.1-20.946a13.049,13.049,0,0,1,8.293-2.878,16.19,16.19,0,0,1,12.434,6.151c5.415,6.689,4.921,16.08-1.1,20.957A13.1,13.1,0,0,1,71.09,146.4Z" transform="translate(4.776 10.831)" fill="#f6921e"/><path d="M129.253,195.62l-8.183,13.708L169.1,289.8c1.1-6.261-2.746-13.071-2.746-13.071Z" transform="translate(11.912 19.246)" fill="#f6921e"/><path d="M79.9,122.011a16.19,16.19,0,0,0-12.434-6.151,13.049,13.049,0,0,0-8.293,2.878c-6.008,4.866-6.5,14.279-1.1,20.946a16.19,16.19,0,0,0,12.434,6.151,13.1,13.1,0,0,0,8.293-2.867C84.822,138.091,85.316,128.7,79.9,122.011Zm-9.38,21.133a14.026,14.026,0,0,1-13.477-14.477,10.588,10.588,0,0,1,3.833-7.831,10.3,10.3,0,0,1,6.59-2.274,14.015,14.015,0,0,1,13.477,14.466,10.61,10.61,0,0,1-3.833,7.842A10.369,10.369,0,0,1,70.521,143.144Z" transform="translate(5.345 11.399)" fill="#162344"/><path d="M213.024,104.25a15.74,15.74,0,0,0-8.787-2.79c-5.635,0-10.8,3.141-14.532,6.59a10.479,10.479,0,0,1-7.052,2.944,22.813,22.813,0,0,0-21.309,29.656,10.742,10.742,0,0,1-1.713,10.336c-6.3,7.689-17.508,20.946-22.429,25.329-7.689,4.547-11.874,4.723-11.874,4.723L77.264,285.989s-3.822,6.81-2.757,13.071l69.462-116.352a45.031,45.031,0,0,1,4.976-6.788l17.124-19.31a10.577,10.577,0,0,1,7.963-3.526,11.336,11.336,0,0,1,2.021.176,19.772,19.772,0,0,0,3.6.33,22.5,22.5,0,0,0,17.333-8.491c7.612-9.4,6.7-22.8-2.032-29.876h0a2.2,2.2,0,0,1,0-3.3c2.405-2.065,5.657-4.053,9.193-4.053a9.589,9.589,0,0,1,5.492,1.757,3.218,3.218,0,0,0,1.779.538,3.163,3.163,0,0,0,2.911-1.9A3.3,3.3,0,0,0,213.024,104.25Zm-20.957,36.895a16.168,16.168,0,0,1-12.434,6.151,13.071,13.071,0,0,1-8.282-2.867c-6.019-4.877-6.5-14.279-1.1-20.957a16.2,16.2,0,0,1,12.434-6.151,13.027,13.027,0,0,1,8.293,2.878c6.008,4.822,6.5,14.224,1.087,20.9Z" transform="translate(7.312 9.982)" fill="#f6921e"/><path d="M217.337,102.215a18.42,18.42,0,0,0-10.325-3.3c-5.492,0-11.269,2.6-16.366,7.315a7.864,7.864,0,0,1-5.217,2.2A25.5,25.5,0,0,0,161.561,141.6a7.974,7.974,0,0,1-1.241,7.689c-7.755,9.446-17.574,20.869-21.968,24.845-6.755,3.921-10.4,4.229-10.435,4.229l-.78.055-1.329-.055s-3.647-.308-10.391-4.229c-4.394-4-14.191-15.377-21.968-24.845a8,8,0,0,1-1.241-7.689A25.537,25.537,0,0,0,68.253,108.41a21.968,21.968,0,0,0-13.971,4.877,22.2,22.2,0,0,0-8.128,15.982,25.7,25.7,0,0,0,25.164,27.174,22.682,22.682,0,0,0,4.141-.373,8.875,8.875,0,0,1,1.527-.143,7.831,7.831,0,0,1,5.876,2.592c6.085,6.876,13.268,14.971,17.146,19.343a43.354,43.354,0,0,1,4.69,6.4l10.72,17.97L77.59,284.943c-.538.989-4.152,7.985-3,14.729l1.219,7.216,3.756-6.283,47.3-79.216,47.3,79.216,3.745,6.283,1.23-7.216c1.1-6.744-2.471-13.741-3.01-14.729L138.3,202.234l10.731-17.981a42.321,42.321,0,0,1,4.679-6.382c3.855-4.394,10.984-12.445,17.124-19.31a7.9,7.9,0,0,1,5.942-2.625,9.228,9.228,0,0,1,1.549.143,22.86,22.86,0,0,0,4.075.362,25.065,25.065,0,0,0,19.463-9.49,25.362,25.362,0,0,0,5.712-17.684,22.3,22.3,0,0,0-7.689-15.6c1.8-1.461,4.394-3.021,6.975-3.021a7.03,7.03,0,0,1,3.987,1.3,5.854,5.854,0,0,0,8.655-2.5A5.975,5.975,0,0,0,217.337,102.215Zm-.231,6.228a3.163,3.163,0,0,1-2.911,1.9,3.218,3.218,0,0,1-1.779-.538,9.589,9.589,0,0,0-5.492-1.757c-3.537,0-6.788,1.988-9.193,4.053a2.2,2.2,0,0,0,0,3.3h0c8.787,7.074,9.644,20.474,2.032,29.876a22.5,22.5,0,0,1-17.365,8.491,19.771,19.771,0,0,1-3.6-.33,11.337,11.337,0,0,0-2.021-.176,10.578,10.578,0,0,0-7.963,3.526l-17.124,19.31a45.032,45.032,0,0,0-4.976,6.788L77.26,299.309c-1.1-6.261,2.757-13.071,2.757-13.071L128.06,181.2s4.13-.176,11.874-4.723c4.921-4.394,16.124-17.662,22.429-25.329a10.742,10.742,0,0,0,1.713-10.336,22.813,22.813,0,0,1,21.309-29.6,10.479,10.479,0,0,0,7.052-2.944c3.735-3.46,8.9-6.59,14.532-6.59a15.74,15.74,0,0,1,8.787,2.79,3.3,3.3,0,0,1,1.307,3.976ZM176.477,299.309l-48.032-80.468,8.183-13.708,37.1,81.1S177.543,293.049,176.477,299.309ZM71.329,153.839a22.528,22.528,0,0,1-17.365-8.491c-7.612-9.4-6.7-22.8,2.032-29.876a19.332,19.332,0,0,1,12.269-4.284,22.517,22.517,0,0,1,17.376,8.5,22.253,22.253,0,0,1,4.02,21.122,10.709,10.709,0,0,0,1.724,10.336c6.294,7.689,17.5,20.946,22.418,25.329,6.173,3.625,10.006,4.459,11.324,4.657L116.8,199.345l-9.787-16.377a44.385,44.385,0,0,0-4.987-6.81L84.883,156.816a10.72,10.72,0,0,0-9.885-3.3A20.286,20.286,0,0,1,71.329,153.839Z" transform="translate(4.537 9.732)" fill="#162344"/><path d="M174.45,115.86a16.2,16.2,0,0,0-12.434,6.151c-5.4,6.689-4.921,16.08,1.1,20.957a13.071,13.071,0,0,0,8.282,2.867,16.168,16.168,0,0,0,12.434-6.151c5.415-6.678,4.921-16.08-1.1-20.946a13.027,13.027,0,0,0-8.282-2.878Zm-9.644,25.01a10.61,10.61,0,0,1-3.833-7.842,13.741,13.741,0,0,1,3.141-9.314,13.554,13.554,0,0,1,10.336-5.151,10.281,10.281,0,0,1,6.59,2.274c4.855,3.932,5.173,11.621.692,17.146a13.565,13.565,0,0,1-10.336,5.162,10.369,10.369,0,0,1-6.612-2.274Z" transform="translate(15.571 11.399)" fill="#162344"/><path d="M125.261,191.846a5.8,5.8,0,0,0-5.492-3.866,5.7,5.7,0,0,0-1.922.33,5.788,5.788,0,1,0,7.381,3.537Zm-3.3-1.1Zm-3.3-.472a3.6,3.6,0,0,1,1.219-.209,3.668,3.668,0,0,1,1.2.22l-4.053,5.756a3.712,3.712,0,0,1-.615-1.1,3.669,3.669,0,0,1,2.164-4.635Zm-.912,6.459Zm3.3.472a3.646,3.646,0,0,1-1.219.209,3.767,3.767,0,0,1-1.1-.165l4.031-5.734a3.976,3.976,0,0,1,.538,1,3.669,3.669,0,0,1-2.285,4.723Z" transform="translate(11.214 18.495)" fill="#162344"/></svg>